<svg width="96" height="96" viewBox="0 0 96 96" fill="none" xmlns="http://www.w3.org/2000/svg">
  <!-- Cactus icon -->
  <g transform="translate(6, 2)">
    <!-- Left arm (shorter, curves up) -->
    <path d="M12 70 L12 45 Q12 35 22 35 Q32 35 32 45 L32 70 Q32 80 22 80 Q12 80 12 70 Z" fill="#10B981"/>

    <!-- Center body (tallest) -->
    <path d="M32 80 L32 20 Q32 8 47 8 Q62 8 62 20 L62 80 Q62 92 47 92 Q32 92 32 80 Z" fill="#10B981"/>

    <!-- Right arm (shortest, curves up) -->
    <path d="M62 70 L62 50 Q62 40 72 40 Q82 40 82 50 L82 70 Q82 80 72 80 Q62 80 62 70 Z" fill="#10B981"/>
  </g>
</svg>
